<svg width="32" height="32" viewBox="0 0 32 32" fill="none" xmlns="http://www.w3.org/2000/svg">
<path d="M30.9688 14.6138L17.3854 1.03116C16.6036 0.248889 15.3349 0.248889 14.5521 1.03116L11.7315 3.85182L15.3096 7.42997C16.1411 7.14899 17.0946 7.33748 17.7574 8.0003C18.4234 8.66736 18.6106 9.62901 18.3228 10.4632L21.7711 13.9116C22.6054 13.6242 23.568 13.8102 24.2344 14.4776C25.1656 15.4085 25.1656 16.9173 24.2344 17.8488C23.3029 18.7804 21.7941 18.7804 20.8621 17.8488C20.1616 17.1476 19.9886 16.1188 20.3432 15.2559L17.1273 12.04L17.1269 20.5028C17.3601 20.6181 17.573 20.7704 17.7574 20.9537C18.6887 21.8846 18.6887 23.3935 17.7574 24.3257C16.8259 25.2569 15.3164 25.2569 14.3862 24.3257C13.455 23.3935 13.455 21.8847 14.3862 20.9538C14.6094 20.7305 14.8746 20.5537 15.1666 20.4336V11.8919C14.8742 11.7725 14.6088 11.5956 14.3862 11.3716C13.6807 10.667 13.511 9.63168 13.8725 8.76531L10.3453 5.23773L1.03144 14.551C0.248798 15.334 0.248798 16.6029 1.03144 17.3853L14.6151 30.9682C15.3971 31.7506 16.6656 31.7506 17.4486 30.9682L30.9687 17.4484C31.7511 16.6657 31.7511 15.3961 30.9687 14.6138" fill="#EF4444"/>
</svg>
